<?xml version="1.0" encoding="UTF-8"?>
<svg width="514px" height="472px" viewBox="0 0 514 472" version="1.1" xmlns="http://www.w3.org/2000/svg" xmlns:xlink="http://www.w3.org/1999/xlink">
    <title>liquidity</title>
    <g id="Welcome" stroke="none" stroke-width="1" fill="none" fill-rule="evenodd">
        <g id="liquidity">
            <path d="M484.784,210.836 L352.516,210.836 C349.608,210.836 347.662,213.83 348.844,216.486 L358.292,237.746 C361.366,244.664 368.226,249.122 375.796,249.122 L461.504,249.122 C469.074,249.122 475.934,244.664 479.008,237.746 L488.456,216.486 C489.638,213.828 487.692,210.836 484.784,210.836 L484.784,210.836 Z" id="Path" fill="#FCDD86" fill-rule="nonzero"></path>
            <path d="M161.482,210.836 L29.216,210.836 C26.308,210.836 24.362,213.83 25.544,216.486 L34.992,237.746 C38.066,244.664 44.926,249.122 52.496,249.122 L138.204,249.122 C145.774,249.122 152.634,244.664 155.708,237.746 L165.156,216.486 C166.336,213.828 164.39,210.836 161.482,210.836 L161.482,210.836 Z" id="Path" fill="#FCDD86" fill-rule="nonzero"></path>
            <circle id="Oval" fill="#5290DB" fill-rule="nonzero" cx="258.064" cy="308.676" r="25.524"></circle>
            <path d="M232.54,308.676 C232.54,300.44 236.458,293.136 242.512,288.47 L141.146,288.47 C126.72,288.47 114.454,279.158 109.964,266.24 C106.284,270.1 101.104,272.518 95.35,272.518 C91.24,272.518 87.422,271.284 84.232,269.176 C90.432,294.856 113.59,313.994 141.146,313.994 L233.104,313.994 C232.738,312.278 232.54,310.502 232.54,308.676 Z" id="Path" fill="#EDF4FC" fill-rule="nonzero"></path>
            <path d="M418.65,272.518 C412.896,272.518 407.716,270.1 404.036,266.24 C399.544,279.158 387.28,288.47 372.854,288.47 L273.616,288.47 C279.67,293.138 283.588,300.44 283.588,308.676 C283.588,310.5 283.388,312.278 283.024,313.994 L372.854,313.994 C400.41,313.994 423.568,294.856 429.768,269.176 C426.578,271.284 422.76,272.518 418.65,272.518 L418.65,272.518 Z" id="Path" fill="#EDF4FC" fill-rule="nonzero"></path>
            <path d="M398.72,249.12 C398.554,250.162 398.444,251.222 398.444,252.31 C398.444,263.47 407.49,272.516 418.65,272.516 C429.81,272.516 438.856,263.47 438.856,252.31 C438.856,251.222 438.746,250.162 438.58,249.12 L398.72,249.12 Z" id="Path" fill="#F5C84C" fill-rule="nonzero"></path>
            <path d="M75.418,249.12 C75.252,250.162 75.142,251.222 75.142,252.31 C75.142,263.47 84.188,272.516 95.348,272.516 C106.508,272.516 115.554,263.47 115.554,252.31 C115.554,251.222 115.444,250.162 115.278,249.12 L75.418,249.12 Z" id="Path" fill="#F5C84C" fill-rule="nonzero"></path>
            <path d="M352,466.518 L162,466.518 C155.374,466.518 150,461.144 150,454.518 C150,447.892 155.374,442.518 162,442.518 L352,442.518 C358.626,442.518 364,447.892 364,454.518 C364,461.144 358.626,466.518 352,466.518 Z" id="Path" fill="#5290DB" fill-rule="nonzero"></path>
            <path d="M343.608,442.518 L278.508,323.91 C273.854,330.144 266.442,334.2 258.064,334.2 C248.962,334.2 240.994,329.42 236.476,322.248 L172.272,442.518 L343.608,442.518 Z" id="Path" fill="#3A70BF" fill-rule="nonzero"></path>
            <path d="M506.074,170.98 L432.066,48.782 C426.94,40.318 414.66,40.318 409.534,48.782 L335.526,170.98 C330.21,179.758 336.53,190.974 346.792,190.974 L494.808,190.974 C505.07,190.974 511.39,179.758 506.074,170.98 L506.074,170.98 Z" id="Path" fill="#FC657E" fill-rule="nonzero"></path>
            <path d="M424.514,82.302 C422.082,81.638 419.518,81.638 417.086,82.302 C409.9,84.262 405.474,91.47 406.976,98.764 L413.592,130.898 C414.296,134.318 417.308,136.774 420.8,136.774 C424.292,136.774 427.304,134.32 428.008,130.898 L434.624,98.764 C436.126,91.47 431.7,84.262 424.514,82.302 L424.514,82.302 Z" id="Path" fill="#F5C84C" fill-rule="nonzero"></path>
            <circle id="Oval" fill="#F5C84C" fill-rule="nonzero" cx="420.8" cy="161.41" r="11.552"></circle>
            <circle id="Oval" fill="#FCDD86" fill-rule="nonzero" cx="76" cy="113.992" r="70.768"></circle>
            <path d="M118,43.226 C110.692,43.226 103.638,44.34 97,46.406 C125.8,55.374 146.768,82.28 146.768,113.992 C146.768,145.704 125.8,172.612 97,181.58 C103.638,183.646 110.692,184.76 118,184.76 C157.022,184.76 188.768,153.014 188.768,113.992 C188.768,74.97 157.022,43.226 118,43.226 Z" id="Path" fill="#FCDD86" fill-rule="nonzero"></path>
            <circle id="Oval" fill="#F5C84C" fill-rule="nonzero" cx="76" cy="113.992" r="52.41"></circle>
            <path d="M123.86,61.92 C137.932,74.862 146.768,93.414 146.768,113.994 C146.768,134.574 137.93,153.124 123.86,166.066 C150.01,163.142 170.41,140.91 170.41,113.992 C170.41,87.074 150.01,64.842 123.86,61.92 Z" id="Path" fill="#F5C84C" fill-rule="nonzero"></path>
            <path d="M354.058,352.694 L349.918,352.694 L349.918,348.554 C349.918,345.456 347.406,342.944 344.308,342.944 C341.21,342.944 338.698,345.456 338.698,348.554 L338.698,352.694 L334.56,352.694 C331.462,352.694 328.95,355.206 328.95,358.304 C328.95,361.402 331.462,363.914 334.56,363.914 L338.698,363.914 L338.698,368.054 C338.698,371.152 341.21,373.664 344.308,373.664 C347.406,373.664 349.918,371.152 349.918,368.054 L349.918,363.914 L354.058,363.914 C357.156,363.914 359.668,361.402 359.668,358.304 C359.666,355.204 357.156,352.694 354.058,352.694 Z" id="Path" fill="#3CAADC" fill-rule="nonzero"></path>
            <path d="M198.202,216.582 C194.494,215.912 191.492,218.686 191.492,222.08 C191.492,225.178 193.99,227.69 197.102,227.69 C200.28,227.69 202.712,225.066 202.712,222.08 C202.71,219.376 200.754,217.066 198.202,216.582 L198.202,216.582 Z" id="Path" fill="#EF4460" fill-rule="nonzero"></path>
            <path d="M392.002,336.582 C389.304,337.092 387.492,339.51 387.492,342.08 C387.492,345.458 390.458,348.234 394.202,347.578 C396.672,347.112 398.712,344.874 398.712,342.08 C398.71,338.62 395.602,335.912 392.002,336.582 Z" id="Path" fill="#87D147" fill-rule="nonzero"></path>
            <path d="M148.002,0.582 C145.304,1.092 143.492,3.51 143.492,6.08 C143.492,9.178 145.99,11.69 149.102,11.69 C152.142,11.69 154.712,9.228 154.712,6.08 C154.71,2.62 151.602,-0.088 148.002,0.582 L148.002,0.582 Z" id="Path" fill="#3CAADC" fill-rule="nonzero"></path>
            <path d="M213.328,38.726 C205.338,37.238 199.04,31.068 197.52,23.24 C197.444,22.846 196.894,22.846 196.818,23.24 C195.298,31.068 189.002,37.238 181.01,38.726 C180.608,38.8 180.608,39.338 181.01,39.414 C189,40.902 195.298,47.072 196.818,54.9 C196.894,55.294 197.444,55.294 197.52,54.9 C199.04,47.072 205.336,40.902 213.328,39.414 C213.73,39.338 213.73,38.8 213.328,38.726 Z" id="Path" fill="#F5C84C" fill-rule="nonzero"></path>
            <path d="M494.808,195.974 L346.792,195.974 C340.144,195.974 334.226,192.516 330.962,186.722 C327.698,180.928 327.806,174.076 331.25,168.39 L405.258,46.19 C408.578,40.706 414.388,37.43 420.8,37.43 C427.212,37.43 433.022,40.706 436.342,46.19 L510.35,168.39 C513.794,174.076 513.9,180.93 510.638,186.722 C507.376,192.514 501.458,195.974 494.808,195.974 Z M420.8,47.432 C417.874,47.432 415.328,48.868 413.812,51.372 L339.804,173.572 C338.256,176.128 338.206,179.21 339.674,181.816 C341.142,184.422 343.802,185.976 346.794,185.976 L494.81,185.976 C497.8,185.976 500.46,184.422 501.93,181.816 C503.396,179.21 503.348,176.128 501.8,173.572 L427.792,51.372 C426.274,48.868 423.726,47.432 420.8,47.432 L420.8,47.432 Z" id="Shape" fill="#000000" fill-rule="nonzero"></path>
            <path d="M461.504,254.122 L375.796,254.122 C366.258,254.122 357.594,248.492 353.724,239.778 L344.274,218.518 C343.03,215.714 343.284,212.508 344.956,209.938 C346.626,207.37 349.452,205.836 352.516,205.836 L484.784,205.836 C487.848,205.836 490.676,207.372 492.346,209.94 C494.016,212.51 494.27,215.718 493.024,218.518 L483.574,239.778 C479.706,248.49 471.042,254.122 461.504,254.122 L461.504,254.122 Z M354.026,215.836 L362.862,235.714 C365.132,240.822 370.21,244.12 375.798,244.12 L461.506,244.12 C467.094,244.12 472.172,240.822 474.442,235.714 L483.278,215.836 L354.026,215.836 Z" id="Shape" fill="#000000" fill-rule="nonzero"></path>
            <path d="M138.204,254.122 L52.496,254.122 C42.958,254.122 34.294,248.492 30.424,239.778 L20.974,218.518 C19.728,215.718 19.982,212.51 21.652,209.94 C23.322,207.372 26.15,205.836 29.214,205.836 L161.482,205.836 C164.546,205.836 167.374,207.372 169.044,209.94 C170.714,212.51 170.968,215.718 169.722,218.518 L160.274,239.778 C156.404,248.49 147.74,254.122 138.204,254.122 L138.204,254.122 Z M30.724,215.836 L39.56,235.714 C41.83,240.822 46.908,244.12 52.496,244.12 L138.204,244.12 C143.792,244.12 148.87,240.822 151.14,235.714 L159.974,215.836 L30.724,215.836 Z" id="Shape" fill="#000000" fill-rule="nonzero"></path>
            <path d="M258.064,339.202 C241.232,339.202 227.538,325.508 227.538,308.676 C227.538,291.846 241.232,278.152 258.064,278.152 C274.894,278.152 288.588,291.846 288.588,308.676 C288.588,325.508 274.894,339.202 258.064,339.202 Z M258.064,288.152 C246.746,288.152 237.538,297.36 237.538,308.676 C237.538,319.994 246.746,329.202 258.064,329.202 C269.38,329.202 278.588,319.994 278.588,308.676 C278.588,297.36 269.38,288.152 258.064,288.152 Z" id="Shape" fill="#000000" fill-rule="nonzero"></path>
            <path d="M233.104,318.994 L141.146,318.994 C111.688,318.994 86.286,298.99 79.37,270.35 C78.888,268.352 79.674,266.264 81.356,265.084 C83.038,263.9 85.268,263.872 86.984,265.004 C89.474,266.648 92.366,267.518 95.348,267.518 C99.532,267.518 103.436,265.838 106.342,262.79 C107.546,261.53 109.318,260.988 111.02,261.354 C112.724,261.724 114.112,262.954 114.684,264.598 C118.608,275.888 129.24,283.472 141.144,283.472 L242.51,283.472 C244.65,283.472 246.552,284.834 247.242,286.86 C247.934,288.886 247.258,291.126 245.562,292.432 C240.462,296.362 237.536,302.282 237.536,308.676 C237.536,310.096 237.688,311.536 237.992,312.954 C238.306,314.43 237.938,315.97 236.988,317.142 C236.038,318.314 234.612,318.994 233.104,318.994 L233.104,318.994 Z M92.262,277.328 C100.742,296.37 119.666,308.994 141.146,308.994 L227.54,308.994 C227.538,308.888 227.538,308.782 227.538,308.676 C227.538,303.234 228.958,298.026 231.588,293.47 L141.146,293.47 C127.286,293.47 114.698,285.904 108.04,274.092 C103.366,276.838 97.744,278.008 92.262,277.328 Z" id="Shape" fill="#000000" fill-rule="nonzero"></path>
            <path d="M372.854,318.994 L283.024,318.994 C281.516,318.994 280.086,318.312 279.138,317.14 C278.19,315.968 277.82,314.43 278.134,312.952 C278.436,311.534 278.59,310.094 278.59,308.674 C278.59,302.28 275.664,296.36 270.564,292.43 C268.868,291.124 268.192,288.884 268.884,286.858 C269.574,284.83 271.476,283.47 273.616,283.47 L372.854,283.47 C384.756,283.47 395.39,275.886 399.314,264.596 C399.886,262.95 401.274,261.72 402.978,261.352 C404.682,260.984 406.452,261.528 407.656,262.788 C410.562,265.836 414.466,267.516 418.65,267.516 C421.63,267.516 424.524,266.646 427.014,265.002 C428.728,263.87 430.96,263.898 432.642,265.082 C434.324,266.262 435.11,268.35 434.628,270.348 C427.712,298.99 402.31,318.994 372.854,318.994 L372.854,318.994 Z M288.586,308.994 L372.854,308.994 C394.334,308.994 413.258,296.37 421.738,277.328 C416.254,278.012 410.636,276.84 405.956,274.092 C399.298,285.904 386.71,293.47 372.852,293.47 L284.536,293.47 C287.166,298.024 288.586,303.234 288.586,308.676 C288.588,308.782 288.588,308.888 288.586,308.994 L288.586,308.994 Z" id="Shape" fill="#000000" fill-rule="nonzero"></path>
            <path d="M418.65,277.518 C404.752,277.518 393.444,266.21 393.444,252.31 C393.444,251.06 393.556,249.76 393.782,248.334 C394.168,245.906 396.262,244.122 398.72,244.122 L438.582,244.122 C441.042,244.122 443.138,245.914 443.522,248.342 C443.748,249.78 443.858,251.076 443.858,252.31 C443.858,266.208 432.548,277.518 418.65,277.518 L418.65,277.518 Z M403.552,254.122 C404.45,261.658 410.878,267.518 418.65,267.518 C426.424,267.518 432.852,261.656 433.75,254.122 L403.552,254.122 Z" id="Shape" fill="#000000" fill-rule="nonzero"></path>
            <path d="M95.35,277.518 C81.452,277.518 70.142,266.21 70.142,252.31 C70.142,251.076 70.252,249.778 70.478,248.342 C70.86,245.912 72.956,244.122 75.418,244.122 L115.28,244.122 C117.738,244.122 119.83,245.908 120.218,248.334 C120.444,249.76 120.556,251.06 120.556,252.31 C120.554,266.208 109.248,277.518 95.35,277.518 L95.35,277.518 Z M80.25,254.122 C81.148,261.658 87.576,267.518 95.35,267.518 C103.122,267.518 109.55,261.656 110.448,254.122 L80.25,254.122 Z" id="Shape" fill="#000000" fill-rule="nonzero"></path>
            <path d="M352,471.518 L162,471.518 C152.626,471.518 145,463.892 145,454.518 C145,445.144 152.626,437.518 162,437.518 L352,437.518 C361.374,437.518 369,445.144 369,454.518 C369,463.892 361.374,471.518 352,471.518 Z M162,447.518 C158.14,447.518 155,450.658 155,454.518 C155,458.378 158.14,461.518 162,461.518 L352,461.518 C355.86,461.518 359,458.378 359,454.518 C359,450.658 355.86,447.518 352,447.518 L162,447.518 Z" id="Shape" fill="#000000" fill-rule="nonzero"></path>
            <path d="M343.61,447.518 L172.272,447.518 C170.516,447.518 168.888,446.596 167.984,445.09 C167.08,443.582 167.032,441.714 167.86,440.162 L232.064,319.892 C232.902,318.322 234.516,317.314 236.294,317.252 C238.124,317.194 239.752,318.076 240.704,319.584 C244.496,325.606 250.988,329.202 258.062,329.202 C264.582,329.202 270.572,326.184 274.5,320.92 C275.518,319.558 277.15,318.818 278.856,318.922 C280.554,319.042 282.072,320.014 282.892,321.504 L347.994,440.112 C348.844,441.66 348.814,443.544 347.914,445.066 C347.012,446.584 345.376,447.518 343.61,447.518 L343.61,447.518 Z M180.61,437.518 L335.162,437.518 L277.4,332.286 C272.01,336.742 265.254,339.202 258.062,339.202 C250.27,339.202 242.958,336.278 237.4,331.132 L180.61,437.518 Z" id="Shape" fill="#000000" fill-rule="nonzero"></path>
            <path d="M420.8,141.776 C414.964,141.776 409.872,137.628 408.694,131.91 L402.078,99.774 C400.048,89.918 406.064,80.126 415.772,77.48 C419.06,76.582 422.538,76.582 425.828,77.48 C435.536,80.126 441.548,89.92 439.52,99.774 L432.902,131.908 C431.73,137.624 426.638,141.776 420.8,141.776 L420.8,141.776 Z M420.8,86.804 C419.994,86.804 419.188,86.912 418.406,87.124 C413.774,88.388 410.906,93.058 411.872,97.756 L418.488,129.89 C418.714,130.98 419.686,131.772 420.8,131.772 C421.914,131.772 422.886,130.98 423.108,129.89 L429.728,97.756 C430.694,93.056 427.828,88.386 423.198,87.126 C423.196,87.126 423.196,87.126 423.196,87.126 C422.412,86.912 421.606,86.804 420.8,86.804 L420.8,86.804 Z" id="Shape" fill="#000000" fill-rule="nonzero"></path>
            <path d="M420.8,177.962 C411.674,177.962 404.248,170.536 404.248,161.41 C404.248,152.284 411.674,144.858 420.8,144.858 C429.926,144.858 437.352,152.284 437.352,161.41 C437.352,170.536 429.928,177.962 420.8,177.962 Z M420.8,154.858 C417.186,154.858 414.248,157.798 414.248,161.41 C414.248,165.022 417.188,167.962 420.8,167.962 C424.412,167.962 427.352,165.022 427.352,161.41 C427.352,157.798 424.414,154.858 420.8,154.858 Z" id="Shape" fill="#000000" fill-rule="nonzero"></path>
            <path d="M76,189.76 C34.22,189.76 0.232,155.772 0.232,113.992 C0.232,72.214 34.22,38.226 76,38.226 C117.78,38.226 151.768,72.214 151.768,113.992 C151.768,155.772 117.78,189.76 76,189.76 Z M76,48.226 C39.736,48.226 10.232,77.728 10.232,113.992 C10.232,150.256 39.736,179.76 76,179.76 C112.264,179.76 141.768,150.256 141.768,113.992 C141.768,77.728 112.264,48.226 76,48.226 Z" id="Shape" fill="#000000" fill-rule="nonzero"></path>
            <path d="M118,189.76 C110.338,189.76 102.772,188.614 95.514,186.354 C93.424,185.704 92,183.77 92,181.58 C92,179.39 93.424,177.456 95.514,176.806 C123.18,168.188 141.768,142.946 141.768,113.992 C141.768,85.038 123.18,59.794 95.514,51.18 C93.424,50.53 92,48.596 92,46.406 C92,44.216 93.424,42.282 95.514,41.632 C102.772,39.372 110.338,38.226 118,38.226 C159.78,38.226 193.768,72.214 193.768,113.992 C193.768,155.772 159.78,189.76 118,189.76 L118,189.76 Z M113.902,179.632 C115.264,179.716 116.63,179.758 118,179.758 C154.264,179.758 183.768,150.254 183.768,113.99 C183.768,77.726 154.264,48.226 118,48.226 C116.63,48.226 115.266,48.268 113.904,48.352 C137.068,61.652 151.768,86.354 151.768,113.99 C151.768,141.63 137.07,166.33 113.902,179.632 Z" id="Shape" fill="#000000" fill-rule="nonzero"></path>
            <path d="M76,171.402 C44.344,171.402 18.59,145.648 18.59,113.992 C18.59,82.338 44.344,56.584 76,56.584 C107.656,56.584 133.41,82.338 133.41,113.992 C133.41,145.648 107.656,171.402 76,171.402 Z M76,66.584 C49.858,66.584 28.59,87.852 28.59,113.992 C28.59,140.134 49.858,161.402 76,161.402 C102.142,161.402 123.41,140.134 123.41,113.992 C123.41,87.852 102.142,66.584 76,66.584 Z" id="Shape" fill="#000000" fill-rule="nonzero"></path>
            <path d="M123.858,171.066 C121.916,171.066 120.13,169.936 119.31,168.138 C118.414,166.172 118.884,163.848 120.476,162.386 C134.008,149.936 141.768,132.298 141.768,113.992 C141.768,95.686 134.006,78.048 120.474,65.6 C118.882,64.138 118.412,61.814 119.308,59.848 C120.206,57.88 122.282,56.704 124.414,56.952 C153.486,60.202 175.41,84.726 175.41,113.994 C175.41,143.264 153.486,167.786 124.414,171.036 C124.228,171.056 124.042,171.066 123.858,171.066 L123.858,171.066 Z M138.476,71.214 C147.044,83.73 151.768,98.656 151.768,113.992 C151.768,129.328 147.046,144.254 138.476,156.772 C154.538,149.098 165.41,132.724 165.41,113.992 C165.41,95.264 154.542,78.886 138.476,71.214 Z" id="Shape" fill="#000000" fill-rule="nonzero"></path>
            <text id="Rand" font-family="ArialMT, Arial" font-size="72" font-weight="normal" letter-spacing="1.8" fill="#1A1B22">
                <tspan x="48" y="140">R</tspan>
            </text>
        </g>
    </g>
</svg>