<?xml version="1.0" encoding="UTF-8"?>
<svg width="512px" height="510px" viewBox="0 0 512 510" version="1.1" xmlns="http://www.w3.org/2000/svg" xmlns:xlink="http://www.w3.org/1999/xlink">
    <title>revenue</title>
    <g id="Welcome" stroke="none" stroke-width="1" fill="none" fill-rule="evenodd">
        <g id="Desktop" transform="translate(-292.000000, -1361.000000)" fill-rule="nonzero">
            <g id="revenue" transform="translate(292.000000, 1361.000000)">
                <g id="Group" transform="translate(7.000000, 8.000000)">
                    <g transform="translate(127.000000, 312.000000)" id="Path">
                        <path d="M40.845,181.589 L12.506,181.589 C5.093,181.589 -0.466,174.805 0.992,167.536 L37.28,0.689 L89.574,0.689 L52.36,172.154 C51.259,177.641 46.44,181.589 40.845,181.589 L40.845,181.589 Z" fill="#EAC89F"></path>
                        <path d="M64.6,0.689 L27.386,172.154 C26.286,177.64 21.467,181.588 15.872,181.588 L40.845,181.588 C46.441,181.588 51.259,177.64 52.359,172.154 L89.573,0.689 L64.6,0.689 Z" fill="#D2AF8C"></path>
                        <path d="M203.155,181.589 L231.494,181.589 C238.907,181.589 244.466,174.805 243.008,167.536 L206.72,0.689 L154.426,0.689 L191.64,172.154 C192.741,177.641 197.56,181.589 203.155,181.589 Z" fill="#EAC89F"></path>
                        <path d="M243.009,167.536 L206.721,0.689 L181.748,0.689 L218.036,167.536 C219.494,174.805 213.935,181.589 206.522,181.589 L231.495,181.589 C238.908,181.589 244.466,174.805 243.009,167.536 L243.009,167.536 Z" fill="#D2AF8C"></path>
                    </g>
                    <path d="M480.77,30.295 L480.77,317.865 L17.23,317.865 L17.23,30.295 C17.23,13.785 30.62,0.405 47.12,0.405 L450.88,0.405 C467.38,0.405 480.77,13.785 480.77,30.295 Z" id="Path" fill="#95D6A4"></path>
                    <path d="M480.77,30.295 L480.77,317.865 L455.79,317.865 L455.79,30.475 C455.79,13.865 442.33,0.405 425.72,0.405 L450.88,0.405 C467.38,0.405 480.77,13.785 480.77,30.295 Z" id="Path" fill="#78C2A4"></path>
                    <path d="M497.5,298.605 L497.5,319.665 C497.5,326.795 491.72,332.575 484.59,332.575 L13.41,332.575 C6.28,332.575 0.5,326.795 0.5,319.665 L0.5,298.605 C0.5,291.475 6.28,285.695 13.41,285.695 L484.59,285.695 C491.72,285.695 497.5,291.475 497.5,298.605 Z" id="Path" fill="#F4DBB3"></path>
                    <path d="M497.5,298.605 L497.5,319.665 C497.5,326.795 491.72,332.575 484.59,332.575 L459.54,332.575 C466.71,332.575 472.53,326.765 472.53,319.595 L472.53,298.675 C472.53,291.505 466.71,285.695 459.54,285.695 L484.59,285.695 C491.72,285.695 497.5,291.475 497.5,298.605 Z" id="Path" fill="#EAC89F"></path>
                    <circle id="Oval" fill="#FFD15B" cx="130.379" cy="128.612" r="62.781"></circle>
                    <path d="M130.379,65.831 C126.103,65.831 121.928,66.262 117.892,67.077 C146.582,72.868 168.186,98.215 168.186,128.612 C168.186,159.009 146.582,184.357 117.892,190.147 C121.928,190.962 126.103,191.393 130.379,191.393 C165.052,191.393 193.16,163.285 193.16,128.612 C193.16,93.939 165.052,65.831 130.379,65.831 Z" id="Path" fill="#FFC344"></path>
                    <path d="M269.196,254.27 L249.345,254.27 C245.219,254.27 241.875,250.925 241.875,246.8 L241.875,226.949 C241.875,222.823 245.22,219.479 249.345,219.479 L269.196,219.479 C273.322,219.479 276.666,222.824 276.666,226.949 L276.666,246.8 C276.667,250.926 273.322,254.27 269.196,254.27 Z" id="Path" fill="#FFDFCF"></path>
                    <path d="M348.867,254.27 L329.016,254.27 C324.89,254.27 321.546,250.925 321.546,246.8 L321.546,226.949 C321.546,222.823 324.891,219.479 329.016,219.479 L348.867,219.479 C352.993,219.479 356.337,222.824 356.337,226.949 L356.337,246.8 C356.337,250.926 352.992,254.27 348.867,254.27 Z" id="Path" fill="#EDF4FF"></path>
                    <path d="M427.531,254.27 L407.68,254.27 C403.554,254.27 400.21,250.925 400.21,246.8 L400.21,226.949 C400.21,222.823 403.555,219.479 407.68,219.479 L427.531,219.479 C431.657,219.479 435.001,222.824 435.001,226.949 L435.001,246.8 C435.001,250.926 431.657,254.27 427.531,254.27 Z" id="Path" fill="#E5646E"></path>
                    <path d="M308.793,0.4 L308.793,16.304 C308.793,25.609 301.249,33.153 291.944,33.153 L206.057,33.153 C196.752,33.153 189.208,25.608 189.208,16.304 L189.208,0.4 L308.793,0.4 Z" id="Path" fill="#918291"></path>
                    <path d="M283.82,0.4 L283.82,16.304 C283.82,25.609 276.275,33.153 266.971,33.153 L291.944,33.153 C301.249,33.153 308.793,25.608 308.793,16.304 L308.793,0.4 L283.82,0.4 Z" id="Path" fill="#7A6D79"></path>
                </g>
                <g id="Group" fill="#000000">
                    <path d="M207.66,136.612 C207.66,97.859 176.132,66.331 137.379,66.331 C98.626,66.331 67.098,97.859 67.098,136.612 C67.098,175.365 98.626,206.893 137.379,206.893 C176.132,206.893 207.66,175.365 207.66,136.612 Z M137.378,191.893 C106.896,191.893 82.097,167.094 82.097,136.612 C82.097,106.13 106.896,81.331 137.378,81.331 C167.86,81.331 192.659,106.13 192.659,136.612 C192.659,167.094 167.861,191.893 137.378,191.893 Z" id="Shape"></path>
                    <path d="M495.27,286.542 L495.27,38.295 C495.27,17.678 478.497,0.905 457.88,0.905 L54.12,0.905 C33.503,0.905 16.73,17.677 16.73,38.295 L16.73,119.723 C16.73,123.866 20.088,127.223 24.23,127.223 C28.372,127.223 31.73,123.866 31.73,119.723 L31.73,38.295 C31.73,25.949 41.774,15.905 54.12,15.905 L188.707,15.905 L188.707,24.303 C188.707,37.73 199.63,48.653 213.057,48.653 L298.944,48.653 C312.37,48.653 323.294,37.73 323.294,24.303 L323.294,15.905 L457.88,15.905 C470.226,15.905 480.27,25.949 480.27,38.295 L480.27,286.192 L31.73,286.192 L31.73,154.548 C31.73,150.405 28.372,147.048 24.23,147.048 C20.088,147.048 16.73,150.405 16.73,154.548 L16.73,286.542 C7.229,288.282 -3.90798505e-14,296.607 -3.90798505e-14,306.603 L-3.90798505e-14,327.667 C-3.90798505e-14,338.922 9.156,348.078 20.411,348.078 L157.649,348.078 L127.668,485.942 C124.969,497.474 134.664,509.39 146.504,509.088 L174.841,509.088 C183.961,509.088 191.88,502.618 193.699,493.692 L203.499,448.534 C204.377,444.486 201.808,440.492 197.76,439.614 C193.716,438.736 189.718,441.303 188.84,445.352 L179.029,490.561 C179.021,490.601 179.012,490.641 179.004,490.681 C178.609,492.655 176.858,494.087 174.84,494.087 L146.503,494.087 C143.268,493.603 142.212,492.309 142.34,489.056 L172.998,348.077 L209.95,348.077 L198.401,401.289 L190.539,398.162 C186.688,396.628 182.328,398.51 180.798,402.358 C179.267,406.207 181.146,410.568 184.994,412.099 L234.221,431.682 C248.264,437.27 263.732,437.269 277.775,431.682 L302.69,421.77 L318.298,493.69 C320.117,502.616 328.037,509.086 337.156,509.086 L365.493,509.086 C377.334,509.387 387.028,497.472 384.329,485.94 L360.097,374.512 C359.218,370.464 355.221,367.9 351.175,368.777 C347.128,369.658 344.56,373.652 345.44,377.7 L369.656,489.055 C369.784,492.308 368.728,493.603 365.493,494.086 L337.156,494.086 C335.138,494.086 333.387,492.653 332.992,490.68 C332.984,490.64 332.975,490.6 332.967,490.56 L316.819,416.15 L327.001,412.1 C330.85,410.569 332.729,406.207 331.197,402.359 C329.665,398.511 325.307,396.632 321.456,398.163 L313.594,401.291 L302.046,348.077 L491.587,348.077 C502.841,348.077 511.998,338.921 511.998,327.666 L511.998,306.602 C511.998,296.607 504.771,288.282 495.27,286.542 Z M308.293,24.303 C308.293,29.458 304.099,33.653 298.943,33.653 L213.056,33.653 C207.901,33.653 203.706,29.459 203.706,24.303 L203.706,15.905 L308.293,15.905 L308.293,24.303 L308.293,24.303 Z M299.467,406.913 L272.232,417.747 C261.764,421.911 250.235,421.911 239.768,417.747 L212.532,406.912 L225.3,348.078 L286.698,348.078 L299.467,406.913 Z M497.001,327.668 C497.001,330.651 494.573,333.079 491.589,333.079 L292.67,333.079 C292.667,333.079 292.665,333.079 292.662,333.079 L20.411,333.079 C17.428,333.079 15,330.651 15,327.668 L15,306.604 C15,303.621 17.427,301.193 20.411,301.193 L491.59,301.193 C494.573,301.193 497.001,303.621 497.001,306.604 L497.001,327.668 L497.001,327.668 Z" id="Shape"></path>
                    <path d="M339.539,137.65 L331.624,129.735 C324.482,122.593 312.861,122.594 305.719,129.735 L245.033,190.421 C242.104,193.351 242.104,198.099 245.033,201.028 C247.962,203.956 252.711,203.956 255.639,201.028 L316.325,140.342 C317.619,139.047 319.723,139.047 321.017,140.342 L328.932,148.257 C336.075,155.399 347.696,155.399 354.838,148.257 L433.813,69.282 L433.813,97.56 C433.813,101.703 437.171,105.06 441.313,105.06 C445.455,105.06 448.814168,101.703 448.814168,97.56 L448.814168,51.178 C448.888,47.149 445.339,43.605 441.313,43.6739803 L394.928,43.6739803 C390.786,43.6739803 387.428,47.032 387.428,51.175 C387.428,55.318 390.786,58.675 394.928,58.675 L423.206,58.675 L344.231,137.65 C342.938,138.944 340.833,138.946 339.539,137.65 Z" id="Path"></path>
                    <path d="M241.375,254.8 C241.375,263.054 248.091,269.77 256.345,269.77 L276.196,269.77 C284.45,269.77 291.166,263.054 291.166,254.8 L291.166,234.948 C291.166,226.694 284.45,219.978 276.196,219.978 L256.345,219.978 C248.091,219.978 241.375,226.694 241.375,234.948 L241.375,254.8 Z M276.167,234.949 L276.203,254.77 L256.376,254.8 L256.346,234.979 L276.167,234.949 Z" id="Shape"></path>
                    <path d="M336.016,219.979 C327.762,219.979 321.046,226.695 321.046,234.949 L321.046,254.8 C321.046,263.054 327.762,269.77 336.016,269.77 L355.867,269.77 C364.121,269.77 370.837,263.054 370.837,254.8 L370.837,234.948 C370.837,226.694 364.121,219.978 355.867,219.978 L336.016,219.978 L336.016,219.979 Z M336.045,254.8 L336.015,234.979 L355.836,234.949 L355.872,254.77 L336.045,254.8 Z" id="Shape"></path>
                    <path d="M434.531,219.979 L414.68,219.979 C406.426,219.979 399.71,226.695 399.71,234.949 L399.71,254.8 C399.71,263.054 406.426,269.77 414.68,269.77 L434.531,269.77 C442.786,269.77 449.502,263.054 449.502,254.8 L449.502,234.948 C449.501,226.695 442.786,219.979 434.531,219.979 L434.531,219.979 Z M414.71,254.8 L414.68,234.979 L434.501,234.949 L434.536,254.77 L414.71,254.8 Z" id="Shape"></path>
                    <path d="M115.063,239.09 C110.921,239.09 107.563,242.447 107.563,246.59 C107.563,250.733 110.921,254.09 115.063,254.09 L154.453,254.09 C158.595,254.09 161.953,250.733 161.953,246.59 C161.953,242.447 158.595,239.09 154.453,239.09 L115.063,239.09 Z" id="Path"></path>
                </g>
            </g>
        </g>
    </g>
</svg>